<svg xmlns="http://www.w3.org/2000/svg" xmlns:xlink="http://www.w3.org/1999/xlink"><symbol id="icon-cat-pro" viewBox="0 0 134 56"><path d="m123.1 5.8c1.2-1.9 2.7-3.4 4.5-4.6 1-.7 1.6-.7 2.2.6.8 1.9 1.5 3.9.9 6-.2.8-.1 1.4.4 2.1.6.8 1.1 1.6 1.6 2.3 1.3 1.9 1.8 3.9.9 6.2-.4 1-.4 2-.2 3.1.2 1 .2 2 0 3-.3 1.6-1.1 2.7-2.7 3.2-1.3.3-2.4.9-3.2 2-.2.3-.5.5-.9.5-1.2.2-4.2-2.5-4.2-3.7 0-.2 0-.4 0-.6.1-3.6-.1-3.9-3.4-5.4-.7-.3-1.3-.6-1.8-1.2-.6-.8-1.4-.7-2.3-.4-.8.4-1.4.9-1.3 1.9.3 2.4.4 4.8.3 7.3 0 .3.1.6.2.8 3.1 4.5 4.3 9.8 5.8 14.9 1.2 3.9 3.4 6 7.4 6.3.6 0 1.3.2 1.9.3 1.8.3 2.9 1.5 3.4 3.2.7 2.1.3 2.6-1.8 2.6-2.2 0-4.3 0-6.5 0-.9 0-1.6-.2-2.3-.8-1-1-2.2-1.4-3.4-2-1.3-.6-2.6-1.3-3.4-2.6-1.1-1.7-2.6-3.1-4-4.5-2.8-2.9-5.8-5.7-8.4-8.7-1.9-2.2-3.2-4.6-3.2-7.6 0-.9-.2-1.3-1.2-.9-.3.2-.7.3-1 .3-2.8 0-4.2 1.7-5.2 4.2-.9 2.1-2.1 4.1-3.2 6.2-.5 1.1-1 2.6-1 4.2 0 2.4.6 3.2 2.8 4 1.4.5 2.7 1 3.4 2.4.8 1.6.6 2-1.1 2.1-2.3 0-4.5 0-6.8 0-.9 0-1.5-.3-1.9-1.1-.6-1-1.2-2-1.8-3-1-1.7-1.4-3.4-.7-5.4.6-1.7.3-3.6.1-5.3-.4-2.6 0-4.9 1.7-7 .6-.7.6-1-.4-1.2-4.1-.8-8-2.3-11.8-4.1 0 0-.1 0-.1-.1-3.2-1.2-3.8-1-4.7 2.3-.8 2.8-1.6 5.6-2.2 8.5-.7 3.2.1 6.2 1.1 9.2.4 1.2 1.6 1.1 2.5 1.4 2 .6 3.7 1.4 4.5 3.5.7 1.6.6 1.8-1.1 1.8s-3.4-.1-5.2 0c-1.6.1-2.8-.5-4.2-1.4-4.8-3.2-6.2-8.1-6.6-13.4-.2-3.3-2-5.9-4.1-8.4-.4-.5-.8-.7-1.4-.3-2.1 1.3-4.5 2.1-6.7 3-4.8 1.8-9 4.6-12.2 8.8-1.2 1.5-1.9 3.2-2.2 5.1-.3 1.8.2 2.6 2 3.1 1.9.6 2.7 1.5 2.9 3.4.1.8-.2 1.2-1 1.2-2.7 0-5.4 0-8.1 0-.6 0-1-.4-1.3-.8-1.3-1.6-1.9-3.5-1.9-5.5-.1-3.5.3-6.9.9-10.3.4-2.1 1.4-3.8 3.4-4.8 5.9-2.8 9-8.1 11.8-13.6.6-1.1.1-1.3-.9-1.2-2.9.3-5.4 1.6-7.7 3.2-3 2.1-5.7 4.6-8.3 7.1-2.9 2.7-6.2 4.6-10.3 4.9-7.3.4-10.7-3.7-10.4-10.3.1-2.3.9-4.4 2.4-6.1 1.2-1.3 2.6-2 4.5-1.5 1.5.4 1.9 1.2 1.3 2.7-.3.6-.7 1.1-1 1.7-.4.6-.8 1.3-1 2-1.1 3 .4 5.1 3.5 5.4 3.3.3 6-1.1 8.5-3.1 3-2.4 5.7-5.2 8-8.3 3.7-4.8 8.5-7.3 14.4-8.1 2.3-.3 4.3-1.3 6.5-1.9 4.1-1.2 8.3-1.9 12.7-1.8 2 .1 3.9-.3 5.8-1.1 4.9-2 10-2 15.1-1 4 .8 8 1.8 11.9 2.8 2.2.5 4.7.3 7-.2 4.4-1 8.9-1.9 13.4-2 3-.1 5.9.4 8.6 1.7 2 .9 2 .9 1.5 2.8z"/></symbol><symbol id="icon-cat-slim" viewBox="0 0 70 97"><path d="m54.8 0c-.1 0-.3 0-.4 0-.7.4-1.1.9-1.4 1.6-.6 1.1-1 2.3-1.3 3.4-.2.8-.7 1.2-1.5 1.3-2.3.4-4 1.7-5.2 3.7-.7 1.3-1.3 2.6-1.8 3.9-1.4 3.7-2.5 7.5-3.8 11.2-.7 1.9-.8 1.9-2.7 1.9-2.3 0-2.1-.4-2.1 2.1 0 .8.2 1.2 1.1 1.2.3 0 .7-.1.8.2s-.2.5-.4.7c-1.2 1.3-2.7 2-4.3 2.4-1.9.5-3.8.9-5.7 1.5-4.7 1.6-9.1 3.8-12.6 7.6-2.1 2.3-3.5 5-4.7 7.8-3.8 8.7-5.6 17.8-7 27-.6 4.3-1.1 8.6-1.5 13-.1 2.2-.3 4.3-.3 6.5h33.3c.1-.5-.1-.9-.2-1.3-.7-1.8-2.1-2.7-3.8-3.1-.7-.2-.8-.4-.4-.9.7-.9 1.2-2 1.6-3.1 1.6-4.8 2.3-9.8 3.1-14.8.6-3.8 1.5-7.4 3.4-10.8 1.5-2.5 3.3-4.6 5.6-6.4.8-.6.9-.6 1 .4.1.7.1 1.4.2 2.2.3 4.7.3 9.5-.2 14.2-.3 3.7-.5 7.4-.2 11 .4 4.3 1.2 8.4 2.2 12.6h13.3c-.3-2.2-2.1-4-4.2-4.4-1.3-.2-2.5-.1-3.8.2-.6.1-.8 0-.9-.6-.4-5.3-.1-10.6 1-15.8 1.3-6 2.4-12.1 3.1-18.2.3-2.5 1-4.8 2.3-7 1.2-2.1 2.2-4.3 3.4-6.5.9-1.7 1.1-3.4.4-5.2-.3-.7-.5-1.4-.9-2.1-1-2-2-3.9-2.9-5.9-.5-1-.4-1.1.7-1.1 1.6 0 1.6 0 1.7-1.6 0-.2 0-.4 0-.7 0-.7-.3-1.1-1-1-.5 0-1 0-1.5 0-.7 0-.9-.3-.7-1 .6-2.3 2.8-4.1 5.1-4.4 2.2-.3 4.4 0 6.6.4.6.1 1 0 1.3-.6.4-1 .8-2 1.3-3 .2-.4.2-.8-.1-1.1-3.2-4.2-6.7-8-11.4-10.4-.5-.3-.8-.6-.9-1.1-.3-1.4-.7-2.8-1.3-4.2-.3-.7-.6-1.3-1.4-1.7z"/></symbol><symbol id="icon-close" viewBox="0 0 18 18"><path d="m18 1.3-1.3-1.3-7.7 7.7-7.7-7.7-1.3 1.3 7.7 7.7-7.7 7.7 1.3 1.3 7.7-7.7 7.7 7.7 1.3-1.3-7.7-7.7z"/></symbol><symbol id="icon-fb" viewBox="0 0 10 19"><path d="m7.1 19h-5.1v-8.8h-2v-4.4h1.9c-.1-2 .2-3.4 1.1-4.4.8-.9 2-1.3 3.5-1.4h3.5v4.2h-2.8c-.1.2-.2.8-.2 1.6h3v4.4h-2.9zm-4-1h2.8v-8.9h2.9v-2.3h-2.9v-.5c0-1.4 0-2.6.7-3.1l.1-.1h2.1v-2.1h-2.3c-1.2.1-2 .4-2.6 1-.8.8-1 2.3-.8 4.2l.1.6h-2.1v2.3h2z"/></symbol><symbol id="icon-gift" viewBox="0 0 55.5 60"><path d="m52.3 12.2h-7c.5-.7.8-1.4 1.1-2.2.6-2 .4-4.1-.6-5.9s-2.6-3.1-4.6-3.7-4.1-.4-5.9.6c-3.6 2-6.2 6.1-7.6 9-1.4-2.9-4-7.1-7.6-9-3.8-2-8.5-.6-10.5 3.1-1.4 2.7-1.2 5.8.5 8.1h-7c-1.7 0-3.1 1.4-3.1 3.1v9.4c0 1.7 1.4 3.1 3.1 3.1h.9v26.1c0 3.3 2.7 6 6 6h35.5c3.3 0 6-2.7 6-6v-26.1h.8c1.7 0 3.1-1.4 3.1-3.1v-9.4c.1-1.7-1.3-3.1-3.1-3.1zm-15.8-9.2c1.3-.7 2.7-.8 4.1-.4 1.3.4 2.4 1.3 3.1 2.6s.8 2.7.4 4.1c-.4 1.2-1.1 2.2-2.2 2.9h-12.5c1.1-2.6 3.6-7.2 7.1-9.2zm-24.8 2.2c1.5-2.6 4.7-3.6 7.3-2.2 3.5 1.9 6 6.6 7.1 9.1h-12.6c-2.3-1.4-3.1-4.5-1.8-6.9zm14.8 22.6v13.7h-20.1v-13.7zm-20.1 26.1v-10h20.2v13.7h-16.6c-2 0-3.6-1.7-3.6-3.7zm39.1 3.7h-16.6v-13.7h20.2v10c0 2-1.6 3.7-3.6 3.7zm3.6-16.1h-20.2v-13.7h20.2zm4-16.8c0 .4-.3.7-.7.7h-2s0 0 0 0h-22.7s0 0 0 0h-22.5s0 0 0 0h-2c-.4 0-.7-.3-.7-.7v-9.4c0-.4.3-.7.7-.7h49.2c.4 0 .7.3.7.7z" fill="#ffffff"/></symbol><symbol id="icon-insta" viewBox="0 0 16.1 16"><g fill="#231f20"><path d="m11.8 1c1.8 0 3.2 1.4 3.2 3.2v7.7c0 1.7-1.4 3.1-3.1 3.1h-7.7c-1.8 0-3.2-1.4-3.2-3.2v-7.6c0-1.8 1.4-3.2 3.2-3.2zm0-1h-7.6c-2.3 0-4.2 1.9-4.2 4.2v7.7c0 2.2 1.9 4.1 4.2 4.1h7.7c2.3 0 4.2-1.9 4.2-4.2v-7.6c-.1-2.3-2-4.2-4.3-4.2z"/><path d="m8 4.9c1.7 0 3.1 1.4 3.1 3.1s-1.4 3.1-3.1 3.1-3.1-1.4-3.1-3.1 1.4-3.1 3.1-3.1m0-1c-2.3 0-4.1 1.8-4.1 4.1s1.8 4.1 4.1 4.1 4.1-1.8 4.1-4.1-1.8-4.1-4.1-4.1z"/><circle cx="12.3" cy="3.7" r=".9"/></g></symbol><symbol id="icon-mail" viewBox="0 0 17 13"><path d="m15.6 11.6h-14.2v-5.8h-1.4v7.2h17v-7.2h-1.4zm-15.6-11.6v2.3l8.5 7.1 8.5-7.1v-2.3zm15.6 1.6-7.1 5.9-7.1-5.9v-.2h14.2z"/></symbol><symbol id="icon-mobile-menu" viewBox="0 0 24 18"><path d="m0 16h24v2h-24z"/><path d="m0 8h24v2h-24z"/><path d="m0 0h24v2h-24z"/></symbol><symbol id="icon-phone" viewBox="0 0 20 20"><path d="m17.9 9.4h-8.5v1.2h8.5l-2.1 2.1.9.9 3.1-3.1c.2-.2.2-.6 0-.9l-3.1-3.1-.9.9z"/><path d="m8.1 19.4v-6.2c0-.3-.3-.6-.6-.6h-3.1-1.3c0 .7.6 1.2 1.2 1.2h2.5v5h-3.7c-1 .1-1.8-.7-1.9-1.7 0-.1 0-.1 0-.2v-13.8c0-1 .8-1.8 1.7-1.8h.2 3.7v5h-2.4c-.7 0-1.2.6-1.2 1.2h4.4c.3 0 .6-.3.6-.6v-6.3c-.1-.3-.4-.6-.7-.6h-4.4c-1.6-.1-3 1.2-3.1 2.9v.2 13.7c-.1 1.7 1.2 3.1 2.9 3.1h.2 4.4c.3.1.6-.2.6-.5z"/></symbol><symbol id="icon-plus-mobile" viewBox="0 0 30 30"><path d="m30 14h-14v-14h-2v14h-14v2h14v14h2v-14h14z" fill="#231f20"/></symbol><symbol id="icon-plus" viewBox="0 0 60 60"><path d="m60 29.5h-29.5v-29.5h-1v29.5h-29.5v1h29.5v29.5h1v-29.5h29.5z" fill="#231f20"/></symbol><symbol id="icon-right-arrow-long" viewBox="0 0 24.2 11"><path d="m17.6 0 6.6 5.5-6.6 5.5v-4.4h-17.6v-2.2h17.6z" fill="#3f4242"/></symbol><symbol id="icon-right-arrow-verylong" viewBox="0 0 32 11"><path d="m25.4 0 6.6 5.5-6.6 5.5v-4.4h-25.4v-2.2h25.4z" fill="#3f4242"/></symbol><symbol id="icon-tick" viewBox="0 0 21.1 15.5"><path d="m20.1 0-12.4 13.3-6.7-7.2-1 1.1 7.6 8.2.1.1 13.3-14.3.1-.1z"/></symbol><symbol id="icon-vk" viewBox="0 0 22 12"><path d="m17.6 12c-.3 0-.9-.1-1.5-.5-.5-.3-.9-.7-1.3-1.2-.3-.3-.9-.9-1.1-.9-.2.1-.4.7-.3 1.2 0 .1 0 .6-.3.9s-.8.4-.9.4h-1.4c-.7 0-3.2-.2-5.4-2.3-2.9-2.5-5.2-7.4-5.3-7.6-.1-.4-.2-.8.1-1.1s.8-.4 1-.4h3.1c.1 0 .4.1.7.3s.4.5.5.6c.7 1.5 1.5 2.8 2.6 4 .1-.4.2-1.4.1-2.3 0-.4-.1-.8-.2-1-.1-.1-.3-.2-.5-.2l-.6-.5c0-.5.5-.9.9-1.1.5-.2 1.3-.3 2.3-.3h.5c.9 0 1.2.1 1.6.1 1.2.3 1.2 1.3 1.1 2.5v1.6c0 .3 0 .8.1 1 .2-.1.6-.5 1.5-1.9.6-.9 1-1.9 1.1-2.1.1-.3.4-.7 1.2-.7h3.4c.7 0 1.2.2 1.3.7.2.5.1 1.3-1.7 3.5-.3.3-.5.6-.7.9-.5.4-.9 1-.9 1.1s.5.5.9.9c1.1.9 1.9 1.7 2.2 2.3.4.6.3 1 .2 1.3-.3.7-1.2.7-1.4.8h-2.8zm-3.9-3.7c.7 0 1.2.6 1.8 1.2.4.4.7.8 1.1 1 .5.3 1 .3 1 .3h2.9c.1 0 .3-.1.4-.1 0 0 0-.1-.1-.1-.3-.5-1-1.3-2-2.1-.9-.7-1.3-1.1-1.4-1.7 0-.6.4-1.1 1.2-2.1.2-.2.4-.5.7-.8 1.1-1.4 1.4-2 1.5-2.3h-3.9c0 .4-.5 1.5-1.1 2.4-1.4 2.1-2 2.4-2.5 2.4-.1 0-.3 0-.4-.1-.7-.4-.7-1.4-.7-2.1v-.3-1.3c.1-1.3 0-1.3-.3-1.4s-.5-.1-1.4-.1h-.5c-.5 0-1 0-1.4.1l.2.2c.4.5.4 1.5.4 1.7.1 1.3 0 2.9-.7 3.3-.1 0-.2.1-.4.1-.6 0-1.3-.7-2.5-2.5-.6-1.1-1.1-2.2-1.1-2.2s0-.1-.1-.1-.2-.1-.2-.1h-2.9-.1c.4.9 2.5 5 4.8 7.2 2 1.9 4.3 2 4.7 2h1.4s.2 0 .2-.1v-.1c0-.2 0-2 1.2-2.3z"/></symbol></svg>